<svg width="24" height="25" viewBox="0 0 24 25" fill="none" xmlns="http://www.w3.org/2000/svg">
<g id="Icon">
<path id="Vector" d="M20.25 9.011C21.134 9.295 21.75 10.139 21.75 11.108V15.394C21.75 16.53 20.903 17.494 19.77 17.587C19.43 17.614 19.09 17.639 18.75 17.659V20.75L15.75 17.75C14.396 17.75 13.056 17.695 11.73 17.587C11.4413 17.5637 11.1605 17.4813 10.905 17.345M20.25 9.011C20.0955 8.96127 19.9358 8.92939 19.774 8.916C17.0959 8.69368 14.4041 8.69368 11.726 8.916C10.595 9.01 9.75 9.973 9.75 11.108V15.394C9.75 16.231 10.21 16.974 10.905 17.345M20.25 9.011V7.137C20.25 5.516 19.098 4.111 17.49 3.902C15.4208 3.63379 13.3365 3.49951 11.25 3.5C9.135 3.5 7.052 3.637 5.01 3.902C3.402 4.111 2.25 5.516 2.25 7.137V13.363C2.25 14.984 3.402 16.389 5.01 16.598C5.587 16.673 6.167 16.738 6.75 16.792V21.5L10.905 17.345" stroke="#F0F0F0" stroke-width="1.5" stroke-linecap="round" stroke-linejoin="round"/>
</g>
</svg>
