<svg width="24" height="25" viewBox="0 0 24 25" fill="none" xmlns="http://www.w3.org/2000/svg">
<g id="dashboard-5480 1">
<g id="Group">
<path id="Vector" d="M10.145 14.2333H3.42843C2.64093 14.2333 2 13.6068 2 12.8365V3.39682C2 2.62675 2.64093 2 3.42843 2H10.1448C10.9325 2 11.5732 2.62675 11.5732 3.39682V12.8363C11.5734 13.6068 10.9327 14.2333 10.145 14.2333ZM3.42843 3.319C3.38459 3.319 3.34885 3.35395 3.34885 3.39682V12.8363C3.34885 12.8791 3.38459 12.9141 3.42843 12.9141H10.1448C10.1886 12.9141 10.2244 12.8791 10.2244 12.8363V3.39682C10.2246 3.35395 10.1888 3.319 10.145 3.319H3.42843Z" fill="url(#paint0_linear_9_4)"/>
<path id="Vector_2" d="M10.145 22H3.42843C2.64093 22 2 21.3732 2 20.6032V17.2991C2 16.5288 2.64093 15.9023 3.42843 15.9023H10.1448C10.9325 15.9023 11.5732 16.529 11.5732 17.2991V20.603C11.5734 21.3732 10.9327 22 10.145 22ZM3.42843 17.2213C3.38459 17.2213 3.34885 17.2562 3.34885 17.2991V20.603C3.34885 20.646 3.38459 20.681 3.42843 20.681H10.1448C10.1886 20.681 10.2244 20.646 10.2244 20.6032V17.2991C10.2244 17.2562 10.1886 17.2213 10.1448 17.2213H3.42843Z" fill="url(#paint1_linear_9_4)"/>
<path id="Vector_3" d="M20.5716 22H13.855C13.0673 22 12.4266 21.3733 12.4266 20.6032V11.1635C12.4266 10.3932 13.0675 9.7667 13.855 9.7667H20.5716C21.3593 9.7667 22 10.3934 22 11.1635V20.603C22 21.3733 21.3591 22 20.5716 22ZM13.855 11.0857C13.8112 11.0857 13.7754 11.1207 13.7754 11.1635V20.603C13.7754 20.6458 13.8112 20.6808 13.855 20.6808H20.5716C20.6154 20.681 20.6512 20.646 20.6512 20.6032V11.1635C20.6512 11.1207 20.6154 11.0857 20.5716 11.0857H13.855Z" fill="url(#paint2_linear_9_4)"/>
<path id="Vector_4" d="M20.5716 8.09774H13.855C13.0673 8.09774 12.4266 7.471 12.4266 6.7007V3.39682C12.4263 2.62675 13.0673 2 13.855 2H20.5716C21.3591 2 22 2.62675 22 3.39682V6.7007C22 7.471 21.3591 8.09774 20.5716 8.09774ZM13.855 3.319C13.8112 3.319 13.7754 3.35395 13.7754 3.39682V6.7007C13.7754 6.74379 13.8112 6.77874 13.855 6.77874H20.5716C20.6154 6.77874 20.6512 6.74379 20.6512 6.7007V3.39682C20.6512 3.35395 20.6154 3.319 20.5716 3.319H13.855Z" fill="url(#paint3_linear_9_4)"/>
</g>
</g>
<defs>
<linearGradient id="paint0_linear_9_4" x1="11.5732" y1="7.1074" x2="1.90647" y2="8.31776" gradientUnits="userSpaceOnUse">
<stop stop-color="#26FFFF"/>
<stop offset="1" stop-color="#4AFF93"/>
</linearGradient>
<linearGradient id="paint1_linear_9_4" x1="11.5732" y1="18.4481" x2="2.33767" y2="20.768" gradientUnits="userSpaceOnUse">
<stop stop-color="#26FFFF"/>
<stop offset="1" stop-color="#4AFF93"/>
</linearGradient>
<linearGradient id="paint2_linear_9_4" x1="22" y1="14.8741" x2="12.3331" y2="16.0845" gradientUnits="userSpaceOnUse">
<stop stop-color="#26FFFF"/>
<stop offset="1" stop-color="#4AFF93"/>
</linearGradient>
<linearGradient id="paint3_linear_9_4" x1="22" y1="4.54581" x2="12.7643" y2="6.86582" gradientUnits="userSpaceOnUse">
<stop stop-color="#26FFFF"/>
<stop offset="1" stop-color="#4AFF93"/>
</linearGradient>
</defs>
</svg>
