<svg width="24" height="25" viewBox="0 0 24 25" fill="none" xmlns="http://www.w3.org/2000/svg">
<g id="deposit">
<path id="Vector" d="M2.25 19.25C7.58561 19.2457 12.898 19.9522 18.047 21.351C18.774 21.549 19.5 21.009 19.5 20.255V19.25M3.75 5V5.75C3.75 5.94891 3.67098 6.13968 3.53033 6.28033C3.38968 6.42098 3.19891 6.5 3 6.5H2.25M2.25 6.5V6.125C2.25 5.504 2.754 5 3.375 5H20.25M2.25 6.5V15.5M20.25 5V5.75C20.25 6.164 20.586 6.5 21 6.5H21.75M20.25 5H20.625C21.246 5 21.75 5.504 21.75 6.125V15.875C21.75 16.496 21.246 17 20.625 17H20.25M2.25 15.5V15.875C2.25 16.1734 2.36853 16.4595 2.5795 16.6705C2.79048 16.8815 3.07663 17 3.375 17H3.75M2.25 15.5H3C3.19891 15.5 3.38968 15.579 3.53033 15.7197C3.67098 15.8603 3.75 16.0511 3.75 16.25V17M20.25 17V16.25C20.25 16.0511 20.329 15.8603 20.4697 15.7197C20.6103 15.579 20.8011 15.5 21 15.5H21.75M20.25 17H3.75M15 11C15 11.7956 14.6839 12.5587 14.1213 13.1213C13.5587 13.6839 12.7956 14 12 14C11.2044 14 10.4413 13.6839 9.87868 13.1213C9.31607 12.5587 9 11.7956 9 11C9 10.2044 9.31607 9.44129 9.87868 8.87868C10.4413 8.31607 11.2044 8 12 8C12.7956 8 13.5587 8.31607 14.1213 8.87868C14.6839 9.44129 15 10.2044 15 11ZM18 11H18.008V11.008H18V11ZM6 11H6.008V11.008H6V11Z" stroke="url(#paint0_linear_856_1098)" stroke-width="1.5" stroke-linecap="round" stroke-linejoin="round"/>
</g>
<defs>
<linearGradient id="paint0_linear_856_1098" x1="21.75" y1="11.8437" x2="2.44998" y2="15.5172" gradientUnits="userSpaceOnUse">
<stop stop-color="#26FFFF"/>
<stop offset="1" stop-color="#4AFF93"/>
</linearGradient>
</defs>
</svg>
