<svg width="64" height="240" viewBox="0 0 64 240" fill="none" xmlns="http://www.w3.org/2000/svg">
<rect x="16" width="4" height="240" fill="url(#paint0_linear_856_1076)"/>
<g clip-path="url(#clip0_856_1076)">
<path d="M5.26454 99.8224C5.38012 101.033 5.53247 101.968 5.76363 102.929C6.99822 108.033 10.2397 113.546 14.9837 118.602L15.5143 119.17L15.4197 119.468C15.2831 119.866 15.2096 120.62 15.1938 121.688L15.1833 122.575L14.6842 123.148C13.8752 124.078 13.0188 125.145 12.2991 126.112C9.29929 130.148 7.21887 134.535 6.49388 138.365C5.71109 142.497 6.47812 146.066 8.38517 147.154C8.51651 147.229 8.90002 147.457 9.23625 147.659C9.90345 148.057 10.3395 148.254 10.7493 148.344C10.8964 148.376 11.012 148.429 11.012 148.466C11.012 148.588 11.5583 149.629 11.7842 149.937C12.3779 150.75 13.0661 151.228 13.8436 151.366C14.2692 151.446 14.7998 151.377 15.2779 151.18C15.6088 151.042 17.2637 150.686 18.2094 150.543C20.4999 150.203 22.5121 150.368 24.5032 151.047L25.1494 151.27L25.5539 151.18C26.0372 151.069 26.9041 150.771 27.2665 150.585C29.3154 149.55 30.3399 147.675 30.3451 144.961C30.3451 142.449 29.5886 139.31 27.7814 134.333L27.3138 133.048L27.608 133.186C28.3751 133.532 28.9267 133.765 31.4274 134.769C34.6636 136.076 35.8089 136.575 37.4638 137.398C40.4636 138.896 42.544 140.324 44.3197 142.125C46.211 144.031 47.4561 146.044 48.2073 148.418C48.3019 148.71 48.386 148.96 48.3912 148.965C48.4332 149.013 48.7695 148.705 48.9796 148.418C49.4314 147.813 49.7256 147.043 49.8675 146.108C50.0408 144.913 49.857 143.559 49.3579 142.454L49.2108 142.119L49.6521 142.358C51.328 143.256 52.4627 144.971 53.1457 147.632C53.2298 147.962 53.4084 148.811 53.5397 149.518C53.8182 151.01 53.9022 151.371 54.0651 151.78C54.2017 152.125 54.1912 152.152 54.3225 151.207C54.8058 147.808 54.3278 144.605 52.9356 141.928C50.6503 137.525 45.9115 134.094 38.7772 131.683C35.7248 130.653 33.1033 130.01 28.4906 129.161C26.0845 128.72 25.6432 128.619 25.5907 128.486C25.5749 128.438 25.5907 128.422 25.6274 128.438C25.8586 128.523 26.7359 128.752 27.2718 128.868C28.5589 129.139 29.9616 129.341 33.4185 129.75C35.0734 129.952 36.413 130.132 37.4585 130.313C41.9451 131.073 45.0762 132.257 47.5664 134.142C48.6959 134.992 50.1354 136.575 50.7868 137.674C50.8867 137.844 50.9812 137.982 51.0022 137.982C51.0495 137.982 51.412 137.531 51.7377 137.053C52.0845 136.548 52.3367 136.054 52.4732 135.619C52.6203 135.157 52.6519 134.296 52.5468 133.733C52.4838 133.383 52.4785 133.277 52.531 133.245C52.6361 133.176 53.3558 133.197 53.7289 133.277C54.4381 133.431 55.0422 133.861 55.4783 134.519C55.8776 135.125 56.0299 135.539 56.7392 137.881C56.8442 138.221 56.9703 138.604 57.0281 138.731L57.1279 138.965L57.4694 138.248C58.021 137.09 58.3257 136.129 58.4571 135.13C58.5411 134.488 58.4886 133.441 58.352 132.926C57.5535 129.963 54.2174 127.971 48.1548 126.834C44.9606 126.239 42.4336 125.974 35.5199 125.501C30.8232 125.183 29.4363 125.06 27.876 124.832C26.1318 124.577 24.7448 124.211 24.1669 123.85C24.0619 123.786 23.9988 123.717 24.0251 123.695C24.0461 123.674 24.1985 123.626 24.3666 123.589C25.0023 123.441 25.4015 123.095 25.5381 122.575C25.6905 122.007 25.6222 120.111 25.4225 119.394C25.2071 118.602 24.7133 117.991 24.0303 117.667L23.6468 117.487L23.962 117.476C24.1354 117.471 24.3035 117.466 24.3403 117.466C24.3718 117.466 24.5294 117.343 24.687 117.189C25.37 116.52 26.7727 116.111 29.0685 115.915C29.5834 115.872 31.0071 115.787 32.2364 115.729C35.4464 115.575 36.9174 115.447 38.5933 115.193C45.6961 114.109 49.9673 110.827 52.2211 104.724C52.4102 104.215 52.883 102.627 52.883 102.51C52.883 102.473 52.4417 102.988 51.9006 103.657C50.2878 105.649 49.4314 106.605 48.3912 107.566C46.5787 109.234 45.0447 110.073 43.5789 110.19C43.353 110.205 43.1639 110.205 43.1639 110.184C43.1639 110.073 43.5264 109.462 43.9046 108.931C45.1287 107.226 45.4755 106.567 45.7487 105.431C45.88 104.889 45.9063 103.604 45.8012 103.036C45.6856 102.441 45.5648 101.92 45.5333 101.92C45.5122 101.92 45.4439 102.08 45.3757 102.276C44.3092 105.362 42.3916 107.497 39.4181 108.931C37.7527 109.733 35.8456 110.285 32.9457 110.816C31.1595 111.14 31.2593 111.124 31.3171 111.066C31.3801 111.013 33.0823 109.913 35.1259 108.612C37.7212 106.96 39.4128 105.765 40.7735 104.624C41.467 104.045 42.8802 102.605 43.3845 101.973C45.6856 99.0629 46.7573 95.8603 46.915 91.4044L46.9465 90.6343L46.584 91.6699C45.6909 94.2617 44.9554 95.7169 43.8889 97.0128C43.1639 97.8892 42.1394 98.6752 41.3041 98.9992L41.178 99.047L41.2831 98.7708C41.8873 97.1669 41.5248 94.2352 40.4583 92.0948C40.1536 91.4787 39.3603 90.2413 39.2762 90.236C39.2605 90.236 39.2657 90.4696 39.2815 90.7511C39.4864 93.8209 38.9558 96.6411 37.6949 99.1585C36.5969 101.363 34.879 103.365 32.3415 105.404C31.4116 106.153 30.7024 106.658 28.3698 108.235C27.2403 108.995 26.032 109.834 25.6905 110.099C25.349 110.359 25.0653 110.567 25.0548 110.561C25.0495 110.551 25.3017 109.791 25.6222 108.872C26.5363 106.259 27.151 104.427 27.5292 103.216C29.1368 98.0379 29.5466 94.6229 28.8531 92.201C28.2385 90.0607 26.7307 88.7329 24.2195 88.1381L23.6626 88L22.9954 88.2656C21.7766 88.7489 20.9255 88.9985 19.838 89.1844C18.9659 89.3384 17.1376 89.349 16.1867 89.2109C15.2463 89.0728 14.7945 88.9772 14.5581 88.8763C13.0136 88.2071 11.4638 89.0038 10.4971 90.9583C10.3815 91.1919 10.2765 91.4256 10.2554 91.4894C10.2292 91.569 10.1451 91.6115 9.90345 91.6646C9.33606 91.7815 9.02611 91.9567 7.60238 92.9764C6.96145 93.4279 6.683 93.7041 6.35728 94.2033C5.87921 94.9203 5.55348 95.8497 5.3591 97.0288C5.28555 97.4643 5.22251 99.3762 5.26454 99.8224Z" fill="url(#paint1_linear_856_1076)"/>
</g>
<defs>
<linearGradient id="paint0_linear_856_1076" x1="20" y1="100.2" x2="15.8976" y2="100.211" gradientUnits="userSpaceOnUse">
<stop stop-color="#26FFFF"/>
<stop offset="1" stop-color="#4AFF93"/>
</linearGradient>
<linearGradient id="paint1_linear_856_1076" x1="36.2671" y1="88" x2="24.0942" y2="151.297" gradientUnits="userSpaceOnUse">
<stop stop-color="#26FFFF"/>
<stop offset="1" stop-color="#4AFF93"/>
</linearGradient>
<clipPath id="clip0_856_1076">
<rect width="64" height="64" fill="white" transform="translate(0 152) rotate(-90)"/>
</clipPath>
</defs>
</svg>
