<svg width="368" height="802" viewBox="0 0 368 802" fill="none" xmlns="http://www.w3.org/2000/svg">
<path d="M159.111 0.376282C114.676 2.80159 84.2907 15.0133 77.8176 33.0116C76.5611 36.5432 75.9519 41.1385 76.523 43.3936C77.7415 48.5846 84.1384 52.0311 95.8279 53.9033C104.433 55.3074 110.982 55.6478 135.123 56.0733C159.911 56.4988 167.107 56.9243 172.971 58.2433C179.254 59.6475 181.577 61.5196 181.577 65.2214C181.577 69.0509 178.683 72.2846 171.867 76.0715C163.414 80.7519 154.352 83.8155 122.938 92.4955C98.9883 99.1332 91.4872 101.388 83.1484 104.452C63.2724 111.77 55.124 118.323 56.0759 126.365C56.4186 129.258 57.5609 131.811 59.6551 134.407C64.0339 139.853 70.7354 143.597 88.2887 150.32C108.089 157.894 115.628 162.064 120.387 167.978C122.558 170.659 123.548 172.956 124.309 176.956C125.452 183.083 123.738 188.359 118.75 193.976C114.295 199.039 109.269 202.358 90.7637 212.655C71.9158 223.122 67.3846 226.185 62.3966 231.759C58.8935 235.716 57.1039 238.95 56.1139 243.078C54.134 251.63 57.2182 259.204 69.4408 275.84C87.7937 300.859 131.239 347.876 180.625 396.212C185.879 401.361 183 401.317 183.5 400.978C156.694 384.128 136.836 374.767 114.371 364.045C77.8176 346.515 51.0117 339.451 37.266 343.749C30.793 345.749 27.2899 349.323 25.2338 356.131C24.2438 359.322 24.1296 360.216 24.1296 365.194C24.1296 371.491 24.6246 373.491 27.3661 378.639C29.1937 382.128 34.296 388.213 38.5606 392.085C41.6067 394.808 50.2501 401.318 61.3685 409.275C74.7715 418.806 81.2826 425.614 83.8718 432.805C84.976 435.911 84.938 442.038 83.7576 445.825C80.7495 455.483 73.3627 462.164 60.2262 467.057C57.6751 467.993 50.8974 470.12 45.1859 471.737C33.4964 475.056 29.8411 476.333 26.1476 478.417C19.865 481.949 17.7708 486.842 20.5503 491.48C27.2518 502.798 66.5089 529.306 135.732 569.218C150.62 577.813 144.397 585.302 159.742 593.6C164.273 596.025 162.879 596.99 162.378 596.99C161.876 596.99 161.646 595.599 154.145 592.451C101.865 570.495 103.329 569.515 68.8696 558.538C51.0878 552.836 33.9533 548.368 22.4161 546.411C16.2858 545.347 6.53814 545.347 3.91085 546.369C1.28356 547.39 0.255489 548.666 0.0270288 551.304C-0.429891 556.793 4.90084 562.41 16.4381 568.579C25.7288 573.558 36.3522 577.855 62.3966 587.301C87.5272 596.364 97.5794 600.406 106.527 604.916C116.58 609.98 122.52 615.128 123.776 619.851C125.794 627.468 124.309 633.339 118.75 639.424C113.724 644.998 108.051 648.742 90.5352 658.146C78.6553 664.485 72.2584 668.4 67.575 672.144C63.5008 675.378 59.0458 680.739 57.5609 684.143C53.4105 693.589 55.9236 703.886 64.8716 714.268C69.1362 719.204 72.9058 722.608 83.3388 730.905C96.2467 741.202 101.121 745.84 104.471 751.116C111.439 762.093 110.678 773.412 102.301 782.815C97.6556 788.049 91.1445 792.303 78.5792 798.345C74.8096 800.175 71.5762 801.915 71.5 802C71.5015 801.999 184 802 184 802H296.395L289.524 798.218C270.029 787.495 261.157 778.73 261.157 770.178C261.157 762.774 265.992 756.307 275.435 751.116C283.051 746.903 291.542 744.138 312.56 739.032C319.376 737.372 327.106 735.373 329.695 734.564C340.052 731.373 345.573 728.054 347.248 723.884C348.695 720.395 348.01 717.757 344.659 713.843C334.645 702.099 299.424 686.909 245.355 670.995C243.07 670.315 241.243 669.591 241.319 669.379C241.433 669.166 269.991 641.424 304.831 607.725C339.633 574.068 368.076 546.454 368 546.369C367.962 546.326 366.134 547.135 363.926 548.198C348.428 555.857 325.164 565.261 308.181 570.749C266.906 584.152 240.481 583.897 230.124 570.069C226.05 564.665 224.375 555.389 226.088 547.858C228.792 536.114 237.892 525.307 259.367 508.244C263.594 504.883 269.991 499.862 273.532 497.011C286.097 487.055 292.76 480.46 296.492 474.205C301.556 465.695 301.023 458.675 294.626 451.186C291.923 447.995 289.752 446.42 286.021 444.889C284.307 444.208 282.594 443.995 278.291 443.825C272.123 443.612 269.952 443.953 257.159 447.144C250.762 448.761 249.353 448.973 244.974 448.973C240.291 449.016 239.91 448.931 238.082 447.867C235.95 446.633 234.541 444.974 233.247 442.251C232.637 440.932 232.409 439.74 232.409 437.315C232.409 434.422 232.561 433.783 233.97 430.507C236.178 425.359 239.301 420.976 245.812 413.913C251.828 407.36 259.101 400.595 267.82 393.489C278.367 384.894 298.32 370.555 310.961 362.471C312.865 361.194 314.464 360.131 314.464 360.088C314.464 360.003 313.474 360.216 312.294 360.513C302.736 362.981 288.991 365.747 279.243 367.066C253.694 370.598 238.006 368.342 233.932 360.513C231.076 355.067 233.17 347.621 239.605 340.515C247.259 332.005 259.215 324.517 287.239 310.561C319.909 294.264 332.665 285.584 336.396 277.074C338.567 272.096 337.919 265.543 334.683 260.31C322.955 241.248 329.39 224.313 250.115 231.759C229.782 233.632 219.898 233.14 200.86 236.246C201.126 236.246 200.783 236.259 200.86 236.246C200.593 236.246 191.839 237.366 198.33 234.1C289.867 199.89 298.662 177.296 319.262 152.958C322.765 148.831 324.859 145.469 326.268 141.81C327.067 139.64 327.22 138.619 327.22 134.79C327.22 130.662 327.144 130.109 326.001 127.471C322.536 119.302 314.198 115.642 299.043 115.642C292.494 115.642 286.592 116.153 270.105 118.195C262.566 119.131 253.579 120.068 250.115 120.323C236.826 121.216 229.058 119.131 226.393 114.026C225.327 112.026 225.136 108.239 225.936 105.175C226.279 103.814 228.944 97.4737 231.8 91.1765C239.339 74.6673 241.052 68.7105 241.052 59.4773C241.052 55.3926 240.862 53.7756 239.91 49.6909C236.75 36.373 231.457 27.5227 220.986 18.0768C208.763 7.05652 198.213 1.61028 185 -0.0065918C181 -0.0065918 168.25 -0.13431 159.111 0.376282Z" fill="#6CCBB9"/>
<path d="M323.04 198.129C319.051 200.213 317 203.873 317 208.808C317 213.446 318.975 217.02 322.736 219.063C330.03 223.062 338.387 216.51 337.552 207.447C337.172 203.149 334.361 199.192 330.714 197.66C328.586 196.81 325.167 196.98 323.04 198.129Z" fill="#6CCBB9"/>
<path d="M61.4918 305.88C57.655 307.837 55.4137 311.497 55.1098 316.39C54.9578 319.198 55.0338 319.709 56.1355 322.219C58.1109 326.644 61.3019 328.942 65.6705 328.984C68.8235 328.984 71.5586 327.708 73.61 325.197C75.6994 322.645 76.4211 320.645 76.4591 317.113C76.5731 310.092 71.9385 304.987 65.5185 304.987C64.037 304.987 62.5935 305.327 61.4918 305.88Z" fill="#6CCBB9"/>
<path d="M259.828 539.22C256.599 540.369 254.129 544.199 254.091 548.071C254.053 555.261 260.891 559.644 266.514 556.027C269.249 554.283 270.54 551.73 270.578 548.198C270.616 541.731 265.26 537.263 259.828 539.22Z" fill="#6CCBB9"/>
</svg>
