<svg width="500" height="500" viewBox="0 0 500 500" fill="none" xmlns="http://www.w3.org/2000/svg">
<path d="M500 382.4H0V382.65H500V382.4Z" fill="#EBEBEB"/>
<path d="M449.9 398.49H416.78V398.74H449.9V398.49Z" fill="#EBEBEB"/>
<path d="M331.22 401.21H322.53V401.46H331.22V401.21Z" fill="#EBEBEB"/>
<path d="M415.78 389.21H396.59V389.46H415.78V389.21Z" fill="#EBEBEB"/>
<path d="M95.65 390.89H52.46V391.14H95.65V390.89Z" fill="#EBEBEB"/>
<path d="M110.89 390.89H104.56V391.14H110.89V390.89Z" fill="#EBEBEB"/>
<path d="M225.15 395.11H131.47V395.36H225.15V395.11Z" fill="#EBEBEB"/>
<path d="M237 337.8H43.91C42.3973 337.797 40.9475 337.195 39.8788 336.124C38.8102 335.053 38.21 333.603 38.21 332.09V60.66C38.2231 59.156 38.8292 57.718 39.8964 56.6582C40.9637 55.5985 42.4059 55.0026 43.91 55H237C238.514 55 239.967 55.6016 241.038 56.6724C242.108 57.7433 242.71 59.1956 242.71 60.71V332.09C242.71 333.604 242.108 335.057 241.038 336.128C239.967 337.198 238.514 337.8 237 337.8ZM43.91 55.2C42.4636 55.2026 41.0774 55.7791 40.0556 56.8027C39.0338 57.8264 38.46 59.2136 38.46 60.66V332.09C38.46 333.536 39.0338 334.924 40.0556 335.947C41.0774 336.971 42.4636 337.547 43.91 337.55H237C238.447 337.547 239.834 336.971 240.858 335.948C241.881 334.924 242.457 333.537 242.46 332.09V60.66C242.457 59.2127 241.881 57.8255 240.858 56.8021C239.834 55.7787 238.447 55.2026 237 55.2H43.91Z" fill="#EBEBEB"/>
<path d="M453.31 337.8H260.21C258.696 337.797 257.246 337.195 256.175 336.125C255.105 335.054 254.503 333.604 254.5 332.09V60.66C254.516 59.1551 255.124 57.7171 256.193 56.6576C257.262 55.5981 258.705 55.0025 260.21 55H453.31C454.812 55.0052 456.252 55.6022 457.317 56.6617C458.382 57.7212 458.987 59.1578 459 60.66V332.09C459 333.601 458.401 335.05 457.335 336.121C456.268 337.191 454.821 337.795 453.31 337.8ZM260.21 55.2C258.763 55.2026 257.375 55.7787 256.352 56.8021C255.329 57.8255 254.753 59.2127 254.75 60.66V332.09C254.753 333.537 255.329 334.924 256.352 335.948C257.375 336.971 258.763 337.547 260.21 337.55H453.31C454.757 337.547 456.145 336.971 457.168 335.948C458.191 334.924 458.767 333.537 458.77 332.09V60.66C458.767 59.2127 458.191 57.8255 457.168 56.8021C456.145 55.7787 454.757 55.2026 453.31 55.2H260.21Z" fill="#EBEBEB"/>
<path d="M460.43 378.48V311.99H428.41V293.82H413.08V240.39L393.27 220.58H353.08V277.83H297.93V289.15H258.93V274.29H217.04V263.09H184.33V196.76H126.43V239.03H113.1V254.34H82.1101V279.44H65.5501L52.8001 292.19V305.15H40.1201V378.48H460.43Z" fill="#F0F0F0"/>
<path d="M421.43 311.99H427.86L428.41 311.62V311.99H460.43V378.48H421.43V311.99Z" fill="#E6E6E6"/>
<path d="M354.03 293.43H360.46L361.01 292.95V293.43H393.04V378.48H354.03V293.43Z" fill="#E6E6E6"/>
<path d="M258.38 279.12V289.15H259.96L261.64 299.87L256.89 378.48H204.06V274.29H216.49H257.62L258.38 279.12Z" fill="#E6E6E6"/>
<path d="M135.39 254.34V378.48H39.5701V305.15L52.2501 305.68V279.47L65.0001 279.44H81.5601V254.34H109.68H112.54H135.39Z" fill="#E6E6E6"/>
<path d="M64.94 291.98H70.73V286.19H64.94V291.98Z" fill="white"/>
<path d="M75.17 291.98H80.96V286.19H75.17V291.98Z" fill="white"/>
<path d="M64.94 302.77H70.73V296.98H64.94V302.77Z" fill="white"/>
<path d="M75.17 302.77H80.96V296.98H75.17V302.77Z" fill="white"/>
<path d="M96.5501 264.8H102.34V259.01H96.5501V264.8Z" fill="white"/>
<path d="M106.78 264.8H112.57V259.01H106.78V264.8Z" fill="white"/>
<path d="M428.14 327.15H433.93V321.36H428.14V327.15Z" fill="white"/>
<path d="M438.37 327.15H444.16V321.36H438.37V327.15Z" fill="white"/>
<path d="M216.52 297.09V291.3H210.73V297.09H216.52Z" fill="white"/>
<path d="M216.52 286.86V281.07H210.73V286.86H216.52Z" fill="white"/>
<path d="M114.22 291.98H120.01V286.19H114.22V291.98Z" fill="white"/>
<path d="M124.45 291.98H130.24V286.19H124.45V291.98Z" fill="white"/>
<path d="M390.14 250.03H395.93V244.24H390.14V250.03Z" fill="white"/>
<path d="M400.38 250.03H406.17V244.24H400.38V250.03Z" fill="white"/>
<path d="M400.38 260.82H406.17V255.03H400.38V260.82Z" fill="white"/>
<path d="M448.22 204.07C448.315 203.485 448.366 202.893 448.37 202.3C448.373 200.817 448.083 199.348 447.517 197.977C446.951 196.606 446.121 195.36 445.073 194.311C444.026 193.261 442.781 192.429 441.411 191.86C440.041 191.292 438.573 191 437.09 191C436.477 191.003 435.865 191.056 435.26 191.16C433.969 189.002 432.074 187.271 429.809 186.179C427.544 185.087 425.008 184.683 422.516 185.017C420.024 185.352 417.684 186.409 415.787 188.059C413.889 189.709 412.517 191.878 411.84 194.3C411.035 194.046 410.195 193.918 409.35 193.92C408.251 193.921 407.164 194.139 406.149 194.561C405.135 194.983 404.213 195.601 403.438 196.379C402.662 197.157 402.048 198.081 401.63 199.097C401.211 200.113 400.997 201.201 401 202.3C401.002 202.895 401.066 203.488 401.19 204.07H448.22Z" fill="#F0F0F0"/>
<path d="M91.0001 223.12C91.0677 222.7 91.1045 222.276 91.1101 221.85C91.113 220.674 90.8592 219.51 90.3664 218.442C89.8737 217.373 89.1538 216.425 88.2569 215.664C87.3601 214.902 86.3079 214.345 85.1737 214.032C84.0395 213.719 82.8507 213.657 81.6901 213.85C80.7624 212.299 79.4002 211.054 77.7722 210.269C76.1441 209.485 74.3217 209.195 72.5305 209.435C70.7393 209.676 69.0579 210.436 67.6946 211.623C66.3312 212.809 65.3457 214.369 64.8601 216.11C64.2808 215.929 63.677 215.838 63.0701 215.84C61.4788 215.84 59.9526 216.472 58.8274 217.597C57.7022 218.723 57.0701 220.249 57.0701 221.84C57.0705 222.267 57.1174 222.693 57.2101 223.11L91.0001 223.12Z" fill="#F0F0F0"/>
<path d="M182.08 97.5699C182.246 96.5784 182.333 95.5752 182.34 94.5699C182.351 89.4291 180.319 84.4945 176.693 80.8509C173.066 77.2074 168.141 75.1532 163 75.1399C161.947 75.147 160.897 75.2406 159.86 75.4199C157.64 71.712 154.382 68.7359 150.489 66.8596C146.597 64.9832 142.239 64.2888 137.956 64.8623C133.672 65.4357 129.651 67.2519 126.389 70.0862C123.126 72.9205 120.766 76.6487 119.6 80.8099C117.449 80.1406 115.171 79.9863 112.95 80.3594C110.728 80.7325 108.626 81.6226 106.812 82.9578C104.998 84.2931 103.523 86.0362 102.506 88.0463C101.49 90.0564 100.96 92.2774 100.96 94.5299C100.965 95.5387 101.076 96.5441 101.29 97.5299L182.08 97.5699Z" fill="#F0F0F0"/>
<path d="M248.06 427.56C355.142 427.56 441.95 422.492 441.95 416.24C441.95 409.988 355.142 404.92 248.06 404.92C140.977 404.92 54.1699 409.988 54.1699 416.24C54.1699 422.492 140.977 427.56 248.06 427.56Z" fill="#F5F5F5"/>
<path d="M96.1001 124.36H123.84C127.17 124.368 130.361 125.694 132.716 128.047C135.072 130.4 136.4 133.591 136.41 136.92V162.64H97.9301C94.6005 162.63 91.4104 161.301 89.057 158.946C86.7035 156.591 85.378 153.4 85.3701 150.07V135.07C85.3754 132.228 86.5082 129.504 88.5199 127.496C90.5316 125.488 93.2578 124.36 96.1001 124.36Z" fill="#6CCBB9"/>
<path d="M136.41 158.97V169.97L124.91 158.47L136.41 158.97Z" fill="#6CCBB9"/>
<g opacity="0.6">
<path d="M96.1001 124.36H123.84C127.17 124.368 130.361 125.694 132.716 128.047C135.072 130.4 136.4 133.591 136.41 136.92V162.64H97.9301C94.6005 162.63 91.4104 161.301 89.057 158.946C86.7035 156.591 85.378 153.4 85.3701 150.07V135.07C85.3754 132.228 86.5082 129.504 88.5199 127.496C90.5316 125.488 93.2578 124.36 96.1001 124.36Z" fill="white"/>
<path d="M136.41 158.97V169.97L124.91 158.47L136.41 158.97Z" fill="white"/>
</g>
<path d="M119.39 136.6C115.47 133.1 110.89 137.85 110.89 137.85C110.89 137.85 106.31 133.1 102.39 136.6C96.8 141.6 104.93 150.6 110.89 152.34C116.85 150.55 125 141.6 119.39 136.6Z" fill="white"/>
<path d="M406.18 144.5C398.995 144.5 391.971 142.369 385.996 138.377C380.022 134.385 375.365 128.711 372.616 122.073C369.866 115.435 369.146 108.13 370.548 101.082C371.95 94.0351 375.41 87.5618 380.491 82.4809C385.572 77.4001 392.045 73.94 399.092 72.5382C406.14 71.1364 413.445 71.8558 420.083 74.6056C426.721 77.3553 432.395 82.0118 436.387 87.9862C440.379 93.9607 442.51 100.985 442.51 108.17C442.5 117.802 438.669 127.037 431.858 133.848C425.047 140.659 415.812 144.49 406.18 144.5ZM406.18 76.8501C399.983 76.8501 393.925 78.6878 388.773 82.1309C383.621 85.5739 379.605 90.4676 377.234 96.1929C374.863 101.918 374.243 108.218 375.453 114.296C376.663 120.374 379.647 125.956 384.03 130.337C388.413 134.718 393.996 137.702 400.074 138.909C406.152 140.117 412.452 139.495 418.177 137.122C423.901 134.75 428.794 130.732 432.235 125.579C435.676 120.425 437.512 114.367 437.51 108.17C437.5 99.865 434.195 91.9033 428.321 86.0317C422.448 80.1601 414.485 76.858 406.18 76.8501Z" fill="#6CCBB9"/>
<path d="M406.64 130.01L387.98 112.06L391.44 108.46L405.72 122.19L424.22 93.4102L428.43 96.1102L406.64 130.01Z" fill="#6CCBB9"/>
<g opacity="0.8">
<path d="M406.18 144.5C398.995 144.5 391.971 142.369 385.996 138.377C380.022 134.385 375.365 128.711 372.616 122.073C369.866 115.435 369.146 108.13 370.548 101.082C371.95 94.0351 375.41 87.5618 380.491 82.4809C385.572 77.4001 392.045 73.94 399.092 72.5382C406.14 71.1364 413.445 71.8558 420.083 74.6056C426.721 77.3553 432.395 82.0118 436.387 87.9862C440.379 93.9607 442.51 100.985 442.51 108.17C442.5 117.802 438.669 127.037 431.858 133.848C425.047 140.659 415.812 144.49 406.18 144.5ZM406.18 76.8501C399.983 76.8501 393.925 78.6878 388.773 82.1309C383.621 85.5739 379.605 90.4676 377.234 96.1929C374.863 101.918 374.243 108.218 375.453 114.296C376.663 120.374 379.647 125.956 384.03 130.337C388.413 134.718 393.996 137.702 400.074 138.909C406.152 140.117 412.452 139.495 418.177 137.122C423.901 134.75 428.794 130.732 432.235 125.579C435.676 120.425 437.512 114.367 437.51 108.17C437.5 99.865 434.195 91.9033 428.321 86.0317C422.448 80.1601 414.485 76.858 406.18 76.8501Z" fill="white"/>
</g>
<g opacity="0.5">
<path d="M406.64 130.01L387.98 112.06L391.44 108.46L405.72 122.19L424.22 93.4102L428.43 96.1102L406.64 130.01Z" fill="white"/>
</g>
<path d="M346.91 101.67L211.91 101.78C207.932 101.78 204.116 103.36 201.303 106.173C198.49 108.986 196.91 112.802 196.91 116.78L197.15 398.32C197.15 402.298 198.73 406.113 201.543 408.927C204.356 411.74 208.172 413.32 212.15 413.32L347.15 413.2C351.128 413.2 354.943 411.62 357.757 408.807C360.57 405.993 362.15 402.178 362.15 398.2L361.92 116.66C361.919 114.69 361.529 112.74 360.774 110.92C360.019 109.101 358.913 107.448 357.519 106.056C356.126 104.664 354.471 103.561 352.651 102.808C350.831 102.055 348.88 101.669 346.91 101.67Z" fill="#263238"/>
<path d="M346.5 400.8L212.88 400.91C211.554 400.91 210.282 400.383 209.344 399.445C208.407 398.508 207.88 397.236 207.88 395.91L207.64 117.51C207.64 116.184 208.167 114.912 209.104 113.974C210.042 113.037 211.314 112.51 212.64 112.51L346.25 112.4C347.576 112.4 348.848 112.927 349.785 113.864C350.723 114.802 351.25 116.074 351.25 117.4L351.48 395.8C351.48 397.123 350.956 398.391 350.023 399.328C349.089 400.266 347.823 400.795 346.5 400.8Z" fill="#6CCBB9"/>
<path opacity="0.1" d="M291.7 381.49H267.65C264.888 381.49 262.65 383.729 262.65 386.49V387.93C262.65 390.691 264.888 392.93 267.65 392.93H291.7C294.461 392.93 296.7 390.691 296.7 387.93V386.49C296.7 383.729 294.461 381.49 291.7 381.49Z" fill="black"/>
<path opacity="0.1" d="M291.64 297.6H267.59C264.828 297.6 262.59 299.839 262.59 302.6V321.85C262.59 324.611 264.828 326.85 267.59 326.85H291.64C294.401 326.85 296.64 324.611 296.64 321.85V302.6C296.64 299.839 294.401 297.6 291.64 297.6Z" fill="black"/>
<path opacity="0.1" d="M249.25 297.64H225.2C222.439 297.64 220.2 299.878 220.2 302.64V321.89C220.2 324.651 222.439 326.89 225.2 326.89H249.25C252.011 326.89 254.25 324.651 254.25 321.89V302.64C254.25 299.878 252.011 297.64 249.25 297.64Z" fill="black"/>
<path opacity="0.1" d="M334.03 297.57H309.98C307.219 297.57 304.98 299.809 304.98 302.57V321.82C304.98 324.581 307.219 326.82 309.98 326.82H334.03C336.791 326.82 339.03 324.581 339.03 321.82V302.57C339.03 299.809 336.791 297.57 334.03 297.57Z" fill="black"/>
<path opacity="0.1" d="M291.67 335.24H267.62C264.858 335.24 262.62 337.478 262.62 340.24V359.49C262.62 362.251 264.858 364.49 267.62 364.49H291.67C294.431 364.49 296.67 362.251 296.67 359.49V340.24C296.67 337.478 294.431 335.24 291.67 335.24Z" fill="black"/>
<path opacity="0.1" d="M249.28 335.27H225.23C222.469 335.27 220.23 337.508 220.23 340.27V359.52C220.23 362.281 222.469 364.52 225.23 364.52H249.28C252.041 364.52 254.28 362.281 254.28 359.52V340.27C254.28 337.508 252.041 335.27 249.28 335.27Z" fill="black"/>
<path opacity="0.1" d="M334.06 335.2H310.01C307.249 335.2 305.01 337.439 305.01 340.2V359.45C305.01 362.211 307.249 364.45 310.01 364.45H334.06C336.821 364.45 339.06 362.211 339.06 359.45V340.2C339.06 337.439 336.821 335.2 334.06 335.2Z" fill="black"/>
<path opacity="0.1" d="M351.44 327.86L351.35 231.06C314.88 272.92 247 351.52 208 396.78C208.204 397.936 208.809 398.984 209.709 399.739C210.609 400.495 211.745 400.909 212.92 400.91L288.17 400.85L351.44 327.86Z" fill="white"/>
<path opacity="0.1" d="M207.76 257.56L333.64 112.42H274.72C259.13 130.25 232.51 161.01 207.72 189.72L207.76 257.56Z" fill="white"/>
<path opacity="0.1" d="M207.81 318.18L351.29 152.76L351.26 117.38L207.78 282.8L207.81 318.18Z" fill="white"/>
<path opacity="0.2" d="M212.64 112.46H346.26C347.586 112.46 348.858 112.987 349.795 113.924C350.733 114.862 351.26 116.134 351.26 117.46V123.76H207.64V117.46C207.64 116.134 208.167 114.862 209.104 113.924C210.042 112.987 211.314 112.46 212.64 112.46Z" fill="black"/>
<path opacity="0.6" d="M330.71 120.9L330.29 120.48L330.2 120.38H330.15C330.102 120.316 330.059 120.25 330.02 120.18C329.807 119.805 329.697 119.381 329.7 118.95C329.7 118.95 329.7 117.74 329.7 117.69C329.696 117.222 329.552 116.767 329.286 116.381C329.021 115.996 328.646 115.7 328.21 115.53C328.21 115.53 328.21 115.53 328.21 115.45C328.21 115.45 328.21 115.4 328.21 115.37V115.29C328.223 115.17 328.211 115.049 328.173 114.934C328.136 114.819 328.076 114.713 327.995 114.623C327.914 114.533 327.816 114.461 327.705 114.412C327.595 114.363 327.476 114.337 327.355 114.337C327.234 114.337 327.115 114.363 327.005 114.412C326.894 114.461 326.796 114.533 326.715 114.623C326.634 114.713 326.573 114.819 326.536 114.934C326.499 115.049 326.487 115.17 326.5 115.29V115.37C326.5 115.37 326.5 115.43 326.5 115.45C326.5 115.45 326.5 115.45 326.5 115.52C326.063 115.691 325.687 115.989 325.421 116.376C325.155 116.763 325.012 117.221 325.01 117.69V118.9C325.017 119.349 324.903 119.791 324.68 120.18C324.629 120.267 324.573 120.351 324.51 120.43L324.42 120.52L324 120.94C323.951 120.991 323.917 121.054 323.903 121.123C323.889 121.192 323.895 121.264 323.92 121.33C323.947 121.395 323.993 121.45 324.052 121.49C324.111 121.529 324.179 121.55 324.25 121.55H326.59C326.664 121.681 326.772 121.79 326.902 121.866C327.032 121.942 327.179 121.982 327.33 121.982C327.48 121.982 327.628 121.942 327.758 121.866C327.888 121.79 327.996 121.681 328.07 121.55H330.41C330.48 121.548 330.548 121.526 330.605 121.487C330.663 121.447 330.708 121.391 330.734 121.327C330.761 121.262 330.768 121.191 330.755 121.122C330.741 121.054 330.709 120.99 330.66 120.94L330.71 120.9Z" fill="white"/>
<g opacity="0.6">
<path opacity="0.6" d="M223.177 120.757L225.347 120.755L225.345 117.855L223.175 117.857L223.177 120.757Z" fill="white"/>
<path opacity="0.6" d="M219.628 120.773L221.798 120.771L221.795 116.901L219.625 116.903L219.628 120.773Z" fill="white"/>
<path opacity="0.6" d="M216.099 120.76L218.269 120.759L218.265 115.929L216.095 115.93L216.099 120.76Z" fill="white"/>
<path opacity="0.6" d="M212.54 120.777L214.71 120.775L214.705 114.975L212.535 114.977L212.54 120.777Z" fill="white"/>
</g>
<path opacity="0.6" d="M336.91 116.7H335.62V119.6H336.91V116.7Z" fill="white"/>
<path opacity="0.6" d="M336.899 120.673L347.169 120.664L347.165 115.654L336.895 115.663L336.899 120.673Z" fill="white"/>
<path d="M286.93 112.46C286.932 113.942 286.494 115.391 285.673 116.624C284.851 117.857 283.682 118.819 282.313 119.387C280.945 119.955 279.438 120.105 277.985 119.817C276.531 119.529 275.196 118.817 274.147 117.77C273.099 116.723 272.384 115.388 272.095 113.935C271.805 112.482 271.953 110.975 272.519 109.606C273.086 108.237 274.046 107.066 275.278 106.243C276.51 105.42 277.958 104.98 279.44 104.98C281.425 104.98 283.328 105.768 284.733 107.17C286.137 108.573 286.927 110.475 286.93 112.46Z" fill="#263238"/>
<path opacity="0.1" d="M283.31 112.46C283.312 113.226 283.087 113.975 282.662 114.613C282.238 115.25 281.635 115.748 280.928 116.042C280.221 116.337 279.442 116.415 278.691 116.267C277.94 116.119 277.249 115.751 276.707 115.21C276.165 114.669 275.795 113.98 275.645 113.229C275.495 112.478 275.571 111.699 275.863 110.991C276.156 110.283 276.652 109.678 277.289 109.253C277.925 108.827 278.674 108.6 279.44 108.6C280.464 108.6 281.447 109.006 282.173 109.73C282.898 110.453 283.307 111.435 283.31 112.46Z" fill="#E0E0E0"/>
<path d="M284.19 118.35C284.19 118.35 290.25 112.45 301.57 112.44L284.18 111.44L284.19 118.35Z" fill="#263238"/>
<path d="M274.72 118.36C274.72 118.36 268.64 112.47 257.32 112.48L274.71 111.48L274.72 118.36Z" fill="#263238"/>
<path opacity="0.3" d="M333 157.13H237.32C231.797 157.13 227.32 161.607 227.32 167.13V314.6C227.32 320.123 231.797 324.6 237.32 324.6H333C338.523 324.6 343 320.123 343 314.6V167.13C343 161.607 338.523 157.13 333 157.13Z" fill="black"/>
<path d="M329.63 150.01H233.95C228.427 150.01 223.95 154.487 223.95 160.01V307.48C223.95 313.003 228.427 317.48 233.95 317.48H329.63C335.153 317.48 339.63 313.003 339.63 307.48V160.01C339.63 154.487 335.153 150.01 329.63 150.01Z" fill="white"/>
<path d="M323.05 170.82C321.63 170.82 320.242 170.399 319.061 169.61C317.88 168.821 316.96 167.7 316.416 166.388C315.873 165.076 315.731 163.632 316.008 162.239C316.285 160.846 316.969 159.567 317.973 158.563C318.977 157.559 320.256 156.875 321.649 156.598C323.042 156.321 324.486 156.463 325.798 157.007C327.11 157.55 328.231 158.47 329.02 159.651C329.809 160.832 330.23 162.22 330.23 163.64C330.227 165.543 329.47 167.368 328.124 168.714C326.778 170.06 324.953 170.817 323.05 170.82ZM323.05 157.82C321.889 157.82 320.754 158.164 319.789 158.809C318.823 159.454 318.071 160.371 317.627 161.444C317.182 162.516 317.066 163.696 317.293 164.835C317.519 165.974 318.078 167.02 318.899 167.841C319.72 168.662 320.766 169.221 321.905 169.447C323.043 169.674 324.224 169.557 325.296 169.113C326.369 168.669 327.286 167.916 327.931 166.951C328.576 165.986 328.92 164.851 328.92 163.69C328.926 162.915 328.78 162.146 328.487 161.428C328.195 160.71 327.764 160.057 327.218 159.507C326.673 158.957 326.023 158.52 325.308 158.222C324.592 157.923 323.825 157.77 323.05 157.77V157.82Z" fill="#E0E0E0"/>
<path d="M325.244 160.529L319.94 165.832L320.86 166.751L326.163 161.448L325.244 160.529Z" fill="#E0E0E0"/>
<path d="M320.86 160.539L319.94 161.458L325.244 166.761L326.163 165.842L320.86 160.539Z" fill="#E0E0E0"/>
<path d="M306.65 313H258C255.348 313 252.804 311.946 250.929 310.071C249.054 308.196 248 305.652 248 303C248 300.348 249.054 297.804 250.929 295.929C252.804 294.053 255.348 293 258 293H306.65C309.302 293 311.846 294.053 313.721 295.929C315.596 297.804 316.65 300.348 316.65 303C316.65 305.652 315.596 308.196 313.721 310.071C311.846 311.946 309.302 313 306.65 313Z" fill="#E0E0E0"/>
<path d="M305.58 311.17H256.93C254.278 311.17 251.734 310.116 249.859 308.241C247.984 306.366 246.93 303.822 246.93 301.17C246.93 298.518 247.984 295.974 249.859 294.099C251.734 292.223 254.278 291.17 256.93 291.17H305.58C308.232 291.17 310.776 292.223 312.651 294.099C314.526 295.974 315.58 298.518 315.58 301.17C315.58 303.822 314.526 306.366 312.651 308.241C310.776 310.116 308.232 311.17 305.58 311.17Z" fill="#6CCBB9"/>
<path d="M260.854 305.14H259.042L261.803 297.14H263.983L266.741 305.14H264.928L262.924 298.968H262.862L260.854 305.14ZM260.741 301.995H265.022V303.316H260.741V301.995ZM274.386 299.941H272.675C272.644 299.719 272.58 299.523 272.484 299.351C272.388 299.176 272.264 299.028 272.113 298.906C271.962 298.783 271.787 298.689 271.589 298.624C271.394 298.559 271.182 298.527 270.953 298.527C270.539 298.527 270.178 298.629 269.871 298.835C269.563 299.038 269.325 299.335 269.156 299.726C268.986 300.114 268.902 300.585 268.902 301.14C268.902 301.71 268.986 302.189 269.156 302.577C269.328 302.965 269.567 303.258 269.875 303.456C270.182 303.654 270.537 303.753 270.941 303.753C271.167 303.753 271.377 303.723 271.57 303.663C271.765 303.603 271.938 303.516 272.089 303.402C272.24 303.284 272.365 303.142 272.464 302.976C272.566 302.809 272.636 302.619 272.675 302.406L274.386 302.413C274.342 302.781 274.231 303.135 274.054 303.476C273.88 303.814 273.644 304.118 273.347 304.386C273.053 304.652 272.701 304.863 272.292 305.019C271.886 305.172 271.427 305.249 270.914 305.249C270.2 305.249 269.562 305.088 269 304.765C268.44 304.442 267.997 303.975 267.671 303.363C267.348 302.751 267.187 302.01 267.187 301.14C267.187 300.267 267.351 299.525 267.679 298.913C268.007 298.301 268.453 297.835 269.015 297.515C269.578 297.192 270.21 297.031 270.914 297.031C271.377 297.031 271.807 297.096 272.203 297.226C272.601 297.356 272.954 297.546 273.261 297.796C273.569 298.044 273.819 298.347 274.011 298.706C274.207 299.066 274.332 299.477 274.386 299.941ZM282.658 299.941H280.947C280.916 299.719 280.852 299.523 280.755 299.351C280.659 299.176 280.535 299.028 280.384 298.906C280.233 298.783 280.059 298.689 279.861 298.624C279.666 298.559 279.453 298.527 279.224 298.527C278.81 298.527 278.449 298.629 278.142 298.835C277.835 299.038 277.597 299.335 277.427 299.726C277.258 300.114 277.173 300.585 277.173 301.14C277.173 301.71 277.258 302.189 277.427 302.577C277.599 302.965 277.839 303.258 278.146 303.456C278.453 303.654 278.809 303.753 279.212 303.753C279.439 303.753 279.649 303.723 279.841 303.663C280.037 303.603 280.21 303.516 280.361 303.402C280.512 303.284 280.637 303.142 280.736 302.976C280.837 302.809 280.908 302.619 280.947 302.406L282.658 302.413C282.613 302.781 282.503 303.135 282.326 303.476C282.151 303.814 281.916 304.118 281.619 304.386C281.324 304.652 280.973 304.863 280.564 305.019C280.158 305.172 279.698 305.249 279.185 305.249C278.472 305.249 277.833 305.088 277.271 304.765C276.711 304.442 276.268 303.975 275.943 303.363C275.62 302.751 275.458 302.01 275.458 301.14C275.458 300.267 275.623 299.525 275.951 298.913C276.279 298.301 276.724 297.835 277.287 297.515C277.849 297.192 278.482 297.031 279.185 297.031C279.649 297.031 280.078 297.096 280.474 297.226C280.873 297.356 281.225 297.546 281.533 297.796C281.84 298.044 282.09 298.347 282.283 298.706C282.478 299.066 282.603 299.477 282.658 299.941ZM283.871 305.14V297.14H289.261V298.534H285.562V300.441H288.984V301.835H285.562V303.745H289.277V305.14H283.871ZM290.606 305.14V297.14H293.762C294.369 297.14 294.886 297.256 295.313 297.488C295.74 297.717 296.066 298.036 296.29 298.445C296.516 298.851 296.629 299.32 296.629 299.851C296.629 300.382 296.515 300.851 296.286 301.257C296.056 301.663 295.724 301.98 295.29 302.206C294.857 302.433 294.334 302.546 293.719 302.546H291.708V301.191H293.446C293.771 301.191 294.04 301.135 294.25 301.023C294.464 300.908 294.623 300.751 294.727 300.55C294.834 300.347 294.887 300.114 294.887 299.851C294.887 299.585 294.834 299.353 294.727 299.156C294.623 298.955 294.464 298.8 294.25 298.691C294.037 298.579 293.766 298.523 293.438 298.523H292.297V305.14H290.606ZM297.423 298.534V297.14H303.994V298.534H301.544V305.14H299.873V298.534H297.423Z" fill="white"/>
<path d="M307.26 257.61H251.87V260.61H307.26V257.61Z" fill="#E0E0E0"/>
<path d="M307.23 278.16H251.84V281.16H307.23V278.16Z" fill="#F5F5F5"/>
<path d="M318.56 264.95H240.58V269.95H318.56V264.95Z" fill="#E0E0E0"/>
<path d="M279.57 252.53C303.407 252.53 322.73 233.207 322.73 209.37C322.73 185.533 303.407 166.21 279.57 166.21C255.734 166.21 236.41 185.533 236.41 209.37C236.41 233.207 255.734 252.53 279.57 252.53Z" fill="#6CCBB9"/>
<path opacity="0.6" d="M279.57 252.53C303.407 252.53 322.73 233.207 322.73 209.37C322.73 185.533 303.407 166.21 279.57 166.21C255.734 166.21 236.41 185.533 236.41 209.37C236.41 233.207 255.734 252.53 279.57 252.53Z" fill="white"/>
<path d="M229.7 226.71C229.7 226.71 227.37 225.56 226.28 225.96C225.19 226.36 218.28 233.84 218.28 234.83C218.28 235.82 222.74 236.28 224.16 235.83C225.58 235.38 230.53 229.66 230.77 229.08L229.7 226.71Z" fill="#FFC3BD"/>
<path d="M226.83 229.47C226.83 229.47 224.35 228.36 224.13 227.32C223.98 226.59 221.66 227.32 221.06 226.85C220.46 226.38 220.65 226.16 220.65 226.16C223.58 225.63 225.98 223.99 229.78 226.61L226.83 229.47Z" fill="#FFC3BD"/>
<path d="M230.44 230.94C237.628 231.429 244.845 231.251 252 230.41C258.48 229.32 262.3 213.83 262.3 213.83C262.3 213.83 278.16 183.19 261.84 194.1C259.02 195.63 253.74 205.3 251.56 212.87C249.38 220.44 249.1 221.48 247 222C246.09 222.23 231.21 224.67 228.69 225.15L230.44 230.94Z" fill="#6CCBB9"/>
<g opacity="0.3">
<path d="M230.44 230.94C237.628 231.429 244.845 231.251 252 230.41C258.48 229.32 262.3 213.83 262.3 213.83C262.3 213.83 278.16 183.19 261.84 194.1C259.02 195.63 253.74 205.3 251.56 212.87C249.38 220.44 249.1 221.48 247 222C246.09 222.23 231.21 224.67 228.69 225.15L230.44 230.94Z" fill="black"/>
</g>
<path opacity="0.5" d="M258.54 223.88C260.137 220.686 261.397 217.335 262.3 213.88L262.49 213.52L259.55 208.41L258.54 223.88Z" fill="black"/>
<path d="M299.28 247.76C297.91 235.68 294.39 204.31 293.98 196.99C293.46 187.89 287.98 187.08 276.38 188.56C264.78 190.04 261.66 194.84 259.26 201.65C256.94 208.21 263.35 222.65 265.99 250.34C271.432 252.143 277.179 252.844 282.895 252.401C288.611 251.958 294.181 250.38 299.28 247.76Z" fill="#6CCBB9"/>
<path opacity="0.3" d="M299.28 247.76C297.91 235.68 294.39 204.31 293.98 196.99C293.46 187.89 287.98 187.08 276.38 188.56C264.78 190.04 261.66 194.84 259.26 201.65C256.94 208.21 263.35 222.65 265.99 250.34C271.432 252.143 277.179 252.844 282.895 252.401C288.611 251.958 294.181 250.38 299.28 247.76Z" fill="black"/>
<path d="M276.5 175C276.5 179.65 276.84 186.39 280.5 188.62C280.5 188.62 281.19 193.21 269.69 201.13C263.99 195.7 266.8 191.94 266.8 191.94C271.5 189.56 270.98 187.57 269.48 184.31L276.5 175Z" fill="#FFC3BD"/>
<path opacity="0.2" d="M273.63 178.72L269.51 184.27C269.87 185.027 270.164 185.813 270.39 186.62C272.22 185.9 274.86 183.56 274.87 181.4C274.691 180.416 274.264 179.494 273.63 178.72Z" fill="black"/>
<path d="M280.8 165.93C280.2 173.71 280.1 177.01 276.2 181.1C270.34 187.26 261.2 185.23 259.49 177.54C257.99 170.6 259.23 159 266.71 155.74C267.938 155.163 269.272 154.845 270.628 154.807C271.984 154.768 273.334 155.009 274.593 155.514C275.852 156.02 276.994 156.78 277.946 157.746C278.899 158.712 279.642 159.864 280.13 161.13C280.719 162.657 280.948 164.3 280.8 165.93Z" fill="#FFC3BD"/>
<path d="M268.68 168.31C268.68 168.94 268.33 169.46 267.93 169.48C267.53 169.5 267.21 168.98 267.21 168.35C267.21 167.72 267.57 167.19 267.96 167.18C268.35 167.17 268.66 167.71 268.68 168.31Z" fill="#263238"/>
<path d="M261.71 168.52C261.71 169.16 261.36 169.68 260.96 169.69C260.56 169.7 260.24 169.19 260.24 168.56C260.24 167.93 260.6 167.41 261 167.4C261.4 167.39 261.72 167.89 261.71 168.52Z" fill="#263238"/>
<path d="M263.84 169.6C263.257 171.061 262.491 172.442 261.56 173.71C261.878 173.928 262.24 174.073 262.62 174.135C263 174.198 263.389 174.175 263.76 174.07L263.84 169.6Z" fill="#ED893E"/>
<path d="M267.07 176.44C266.77 176.498 266.466 176.532 266.16 176.54C266.137 176.541 266.114 176.538 266.092 176.53C266.07 176.522 266.05 176.51 266.033 176.494C266.016 176.478 266.003 176.459 265.994 176.437C265.985 176.416 265.98 176.393 265.98 176.37C265.984 176.321 266.006 176.275 266.041 176.241C266.075 176.206 266.121 176.184 266.17 176.18C266.951 176.164 267.717 175.969 268.411 175.61C269.104 175.251 269.706 174.738 270.17 174.11C270.181 174.088 270.197 174.069 270.216 174.054C270.235 174.039 270.258 174.028 270.281 174.023C270.305 174.017 270.33 174.017 270.354 174.021C270.378 174.026 270.4 174.036 270.42 174.05C270.441 174.062 270.459 174.078 270.473 174.098C270.487 174.118 270.497 174.14 270.501 174.164C270.506 174.187 270.506 174.212 270.5 174.235C270.495 174.259 270.485 174.281 270.47 174.3C269.662 175.433 268.441 176.201 267.07 176.44Z" fill="#263238"/>
<path d="M271.51 166.79C271.435 166.806 271.356 166.796 271.287 166.762C271.218 166.727 271.162 166.67 271.13 166.6C270.81 166.112 270.388 165.7 269.892 165.392C269.396 165.085 268.839 164.889 268.26 164.82C268.163 164.805 268.076 164.753 268.018 164.674C267.96 164.595 267.936 164.497 267.95 164.4C267.965 164.304 268.016 164.218 268.092 164.159C268.168 164.099 268.264 164.071 268.36 164.08C269.058 164.161 269.728 164.399 270.321 164.776C270.913 165.154 271.412 165.661 271.78 166.26C271.819 166.348 271.823 166.447 271.792 166.538C271.76 166.629 271.695 166.705 271.61 166.75C271.581 166.772 271.546 166.786 271.51 166.79Z" fill="#263238"/>
<path d="M259.68 165.28C259.616 165.293 259.55 165.289 259.489 165.268C259.427 165.247 259.372 165.21 259.33 165.16C259.273 165.08 259.248 164.981 259.259 164.883C259.27 164.786 259.317 164.695 259.39 164.63C259.821 164.225 260.344 163.934 260.915 163.78C261.485 163.627 262.085 163.616 262.66 163.75C262.705 163.761 262.747 163.782 262.783 163.81C262.819 163.838 262.85 163.873 262.872 163.913C262.895 163.954 262.909 163.998 262.914 164.044C262.918 164.09 262.914 164.136 262.9 164.18C262.872 164.272 262.81 164.349 262.726 164.396C262.642 164.443 262.543 164.455 262.45 164.43C261.998 164.348 261.532 164.371 261.09 164.498C260.648 164.624 260.241 164.851 259.9 165.16C259.842 165.222 259.764 165.264 259.68 165.28Z" fill="#263238"/>
<path opacity="0.5" d="M294.07 198.31L290.7 197.09L287.7 200.2L295.7 214.83C294.93 207.86 294.32 201.72 294.07 198.31Z" fill="black"/>
<path d="M302.26 234.94L300.12 239.73C300.12 239.73 295.12 242.21 294.48 243.91C293.84 245.61 291.13 249.43 294.17 250.36C295.541 250.846 297.038 250.847 298.41 250.363C299.782 249.879 300.947 248.939 301.71 247.7C303.29 245.14 303.91 243.54 303.83 242.33L307.26 236.17L302.26 234.94Z" fill="#FFC3BD"/>
<path d="M266.08 153.26C263.68 154.08 255.75 158.17 260.86 162.97C260.86 162.97 266.35 160.97 270.01 162.97C270.01 162.97 269.4 159.13 272.18 158.38C272.18 158.38 269.18 163.38 273.98 166.88C278.78 170.38 275.98 173.29 275.98 173.29C275.98 173.29 277.98 173.68 278.81 170.38C278.81 170.38 280.54 172.98 280.87 172.43C294.26 150 272.71 151 266.08 153.26Z" fill="#263238"/>
<path d="M282.75 171.85C282.254 173.247 281.251 174.407 279.94 175.1C278.19 175.98 277.03 174.51 277.27 172.65C277.5 170.98 278.68 168.5 280.55 168.36C280.871 168.347 281.192 168.401 281.491 168.517C281.791 168.634 282.064 168.81 282.292 169.036C282.521 169.262 282.701 169.533 282.821 169.831C282.941 170.129 282.999 170.449 282.99 170.77C282.99 171.143 282.909 171.512 282.75 171.85Z" fill="#FFC3BD"/>
<path d="M286.38 188.11C286.38 188.11 294.67 188.18 306.43 207.91C318.19 227.64 306.43 239 306.43 239L301.1 235.5C301.1 235.5 304.66 226.19 303.03 221.7C301.4 217.21 294.16 208 294.16 208C294.16 208 276.48 189.42 286.38 188.11Z" fill="#6CCBB9"/>
<g opacity="0.3">
<path d="M286.38 188.11C286.38 188.11 294.67 188.18 306.43 207.91C318.19 227.64 306.43 239 306.43 239L301.1 235.5C301.1 235.5 304.66 226.19 303.03 221.7C301.4 217.21 294.16 208 294.16 208C294.16 208 276.48 189.42 286.38 188.11Z" fill="black"/>
</g>
<path d="M199.75 204.5L201.43 200.56L205.24 201.65L202.87 206.94L199.75 204.5Z" fill="#E4897B"/>
<path d="M204.18 202.56C204.18 202.56 206.63 201.67 207.09 200.61C207.55 199.55 208.18 192.34 207.44 191.68C206.7 191.02 202.44 192.14 201.77 193.46C201.1 194.78 200.9 200.85 201.16 201.46L204.18 202.56Z" fill="#E4897B"/>
<path d="M160.19 157.46C160.19 157.46 165.19 151.03 174.13 154.32C183.07 157.61 183.93 171.16 182.81 178.14C181.69 185.12 180.65 196.24 182.1 197.36C182.1 197.36 175.16 199.25 170.85 196.23C166.54 193.21 166.75 180.66 166.75 180.66L168.45 174.16L160.19 157.46Z" fill="#263238"/>
<path d="M174.79 393.86L174.55 407.25L181.6 406.82L182.46 394.7L174.79 393.86Z" fill="#FFB573"/>
<path d="M182.87 406L173.98 405.84C173.818 405.835 173.659 405.886 173.53 405.984C173.4 406.083 173.309 406.222 173.27 406.38L171.53 413.59C171.454 413.896 171.504 414.22 171.667 414.49C171.83 414.76 172.094 414.954 172.4 415.03H172.65C175.85 415.03 178.71 414.9 182.65 414.98C187.36 415.07 186.15 415.61 191.65 415.79C194.98 415.89 195.65 412.11 194.25 411.9C187.79 410.97 187.15 409 184.7 406.64C184.184 406.218 183.536 405.991 182.87 406Z" fill="#263238"/>
<path opacity="0.2" d="M174.75 395.97L174.66 400.99L182 401.22L182.28 397.19L174.75 395.97Z" fill="black"/>
<path d="M143.37 391.51L141.63 404.78L148.67 405.15L150.9 393.2L143.37 391.51Z" fill="#FFB573"/>
<path d="M150 404.45L141.18 403.3C141.02 403.277 140.856 403.31 140.718 403.394C140.579 403.478 140.474 403.607 140.42 403.76L137.88 410.76C137.77 411.057 137.781 411.386 137.912 411.674C138.044 411.963 138.284 412.188 138.58 412.3C138.66 412.331 138.744 412.351 138.83 412.36C142.01 412.72 144.83 412.92 148.83 413.44C153.5 414.06 152.24 414.44 157.72 415.26C161.02 415.74 162.12 412.06 160.72 411.69C154.41 410.04 154 408.01 151.82 405.39C151.35 404.863 150.702 404.528 150 404.45Z" fill="#263238"/>
<path opacity="0.2" d="M143.09 393.6L142.44 398.58L149.7 399.63L150.44 395.66L143.09 393.6Z" fill="black"/>
<path d="M184.38 242.77C184.38 242.77 192.13 305.62 190.58 318.02C189.03 330.42 183.35 399.13 183.35 399.13H173.53C173.53 399.13 170.09 339.89 173.53 316.65C173.53 316.65 164.4 263.26 165.44 249.83C166.48 236.4 183.77 238.31 184.38 242.77Z" fill="#263238"/>
<path opacity="0.3" d="M172.07 307.78C174.24 286.78 169.68 262.92 169.68 262.92L166.54 268.46C168 281.71 170.49 298 172.07 307.78Z" fill="black"/>
<path d="M170.39 272C170.39 290.64 170.21 312.88 168.58 319.57C165.58 331.7 151.07 397.28 151.07 397.28L141.32 396.15C141.32 396.15 145.72 338.82 151.81 316.15C151.81 316.15 150.52 294.69 150.39 274.87C150.39 274.87 144.54 258.87 151.97 238.87C151.97 238.87 168.55 234.17 173.82 240.87C173.82 240.77 170.38 264 170.39 272Z" fill="#263238"/>
<path d="M178 194.5C178 194.5 184.89 195.08 188.67 207.03C192.45 218.98 191.48 217.19 191.48 217.19L199.48 202.81L204.62 205.34C204.62 205.34 196.79 229.72 192.26 234.07C187.73 238.42 180.9 229.07 180.64 227.39C180.38 225.71 179 205.22 179 205.22L178 194.5Z" fill="#6CCBB9"/>
<path opacity="0.1" d="M178 194.5C178 194.5 184.89 195.08 188.67 207.03C192.45 218.98 191.48 217.19 191.48 217.19L199.48 202.81L204.62 205.34C204.62 205.34 196.79 229.72 192.26 234.07C187.73 238.42 180.9 229.07 180.64 227.39C180.38 225.71 179 205.22 179 205.22L178 194.5Z" fill="black"/>
<path d="M160.19 158C160.19 158 154.19 156.56 152.63 171.47C150.86 188.13 156.09 199.27 166.14 199.17C166.14 199.17 164.55 186.32 165.34 182.44C166.13 178.56 163.81 161.76 163.81 161.76L160.19 158Z" fill="#263238"/>
<path d="M185 250L149.26 248.67C149.4 239.51 151.9 217.18 151.05 212.56C150.6 210.09 150.1 207.44 149.53 204.56C149.1 202.4 148.64 200.1 148.12 197.67C152.25 196.358 156.486 195.408 160.78 194.83C165.254 194.161 169.778 193.883 174.3 194C175.262 194.05 176.221 194.157 177.17 194.32C180.58 194.9 183.31 197.92 184.17 201.98C184.57 203.77 184.99 205.98 185.35 208.55C186.35 215.37 188 223.84 185 250Z" fill="#6CCBB9"/>
<g opacity="0.2">
<path d="M185 250L149.26 248.67C149.4 239.51 151.9 217.18 151.05 212.56C150.6 210.09 150.1 207.44 149.53 204.56C149.1 202.4 148.64 200.1 148.12 197.67C152.25 196.358 156.486 195.408 160.78 194.83C165.254 194.161 169.778 193.883 174.3 194C175.262 194.05 176.221 194.157 177.17 194.32C180.58 194.9 183.31 197.92 184.17 201.98C184.57 203.77 184.99 205.98 185.35 208.55C186.35 215.37 188 223.84 185 250Z" fill="black"/>
</g>
<path d="M171.38 199.13C164.08 197.69 162.08 194.4 162.08 194.4C167.08 190.3 163.69 182.4 163.69 182.4L172.44 184.65C172.155 185.871 171.955 187.111 171.84 188.36C171.41 193.74 173.84 193.96 173.84 193.96C175.2 197 171.38 199.13 171.38 199.13Z" fill="#E4897B"/>
<path opacity="0.2" d="M172.44 184.65C172.155 185.871 171.954 187.111 171.84 188.36C165.84 187.96 163.69 182.36 163.69 182.36L172.44 184.65Z" fill="black"/>
<path d="M169.22 159.52C176.96 159.62 179.39 163.8 179.86 171.78C180.44 181.78 178.14 188.78 168.49 186.55C155.39 183.49 156.37 159.36 169.22 159.52Z" fill="#E4897B"/>
<path d="M174.3 171.28C174.901 172.446 175.643 173.535 176.51 174.52C176.283 174.827 175.978 175.068 175.626 175.218C175.274 175.367 174.889 175.42 174.51 175.37L174.3 171.28Z" fill="#DE5753"/>
<path d="M170.12 166C169.509 165.916 168.887 165.974 168.303 166.17C167.718 166.366 167.187 166.694 166.75 167.13" stroke="#263238" stroke-width="0.616569" stroke-linecap="round" stroke-linejoin="round"/>
<path d="M175.4 165.56C175.931 165.433 176.485 165.428 177.018 165.546C177.552 165.663 178.051 165.901 178.48 166.24" stroke="#263238" stroke-width="0.616569" stroke-linecap="round" stroke-linejoin="round"/>
<path d="M160.59 172.46C160.59 172.46 166.18 166.86 165.7 161.95C165.7 161.95 179.22 155.16 179.78 170.74C179.78 170.74 181.46 156.94 168.16 156.46C154.86 155.98 154.67 175.46 161.46 181.32C161.46 181.32 158.31 176.4 160.59 172.46Z" fill="#263238"/>
<path d="M161.84 174.1C161.773 173.205 161.355 172.372 160.677 171.784C159.999 171.195 159.116 170.899 158.22 170.96C155.82 171.19 154.62 176.09 160.56 177.35C161.42 177.54 161.91 176.71 161.84 174.1Z" fill="#E4897B"/>
<path d="M176.74 178C176.696 178.947 176.719 179.896 176.81 180.84L176.33 180.97C174.14 181.53 172.93 181.06 172.27 180.38C171.947 180.039 171.714 179.623 171.59 179.17C171.506 178.918 171.462 178.655 171.46 178.39C172.967 178.651 174.513 178.579 175.99 178.18C176.45 178.05 176.74 178 176.74 178Z" fill="#263238"/>
<path d="M176 178.14V179C174.14 179.52 172.44 179.61 171.63 179.15C171.547 178.897 171.496 178.635 171.48 178.37C172.985 178.629 174.529 178.551 176 178.14Z" fill="white"/>
<path d="M176.33 180.93C174.14 181.49 172.93 181.02 172.27 180.34C173.104 180.136 173.969 180.088 174.82 180.2C175.388 180.276 175.917 180.532 176.33 180.93Z" fill="#DE5753"/>
<path d="M178.72 169.53C178.542 169.366 178.328 169.246 178.096 169.178C177.864 169.111 177.619 169.098 177.381 169.14C177.143 169.183 176.918 169.28 176.723 169.424C176.529 169.568 176.37 169.755 176.26 169.97" stroke="#263238" stroke-width="0.425407" stroke-linecap="round" stroke-linejoin="round"/>
<path d="M172.11 170.15C171.826 169.902 171.489 169.723 171.125 169.628C170.76 169.533 170.379 169.524 170.01 169.602C169.642 169.679 169.297 169.841 169.001 170.075C168.706 170.309 168.47 170.609 168.31 170.95" stroke="#263238" stroke-width="0.425407" stroke-linecap="round" stroke-linejoin="round"/>
<path d="M163.81 161.23C163.81 161.23 172.2 164.84 178.3 163.75C184.4 162.66 173.04 157.42 173.04 157.42L167.23 157.03L163.81 161.23Z" fill="#263238"/>
<path d="M165.85 160.51C166.016 160.786 166.137 161.086 166.21 161.4C166.281 161.677 166.338 161.957 166.38 162.24C166.457 162.793 166.483 163.352 166.46 163.91C166.412 165.004 166.231 166.089 165.92 167.14C165.603 168.173 165.199 169.176 164.71 170.14C164.47 170.62 164.19 171.08 163.93 171.56L163.07 172.92L163.84 171.5C164.06 171.02 164.31 170.5 164.51 170.05C164.93 169.081 165.264 168.077 165.51 167.05C165.745 166.027 165.853 164.979 165.83 163.93C165.811 163.412 165.751 162.898 165.65 162.39C165.59 162.14 165.53 161.89 165.45 161.66C165.384 161.455 165.297 161.257 165.19 161.07L165.85 160.51Z" fill="#263238"/>
<path d="M165.06 160.65C165.42 160.93 165.61 161.15 165.88 161.39C166.15 161.63 166.38 161.85 166.64 162.07C167.155 162.511 167.699 162.915 168.27 163.28C169.415 164.039 170.712 164.537 172.07 164.74C170.674 164.674 169.309 164.306 168.07 163.66C167.441 163.342 166.834 162.985 166.25 162.59C165.96 162.39 165.68 162.18 165.4 161.97C165.12 161.76 164.82 161.52 164.62 161.4L165.06 160.65Z" fill="#263238"/>
<path d="M217.58 230C217.58 230 219.16 227.93 220.32 227.8C221.48 227.67 230.32 229.02 230.78 229.92C231.24 230.82 227.01 234.76 225.55 235.02C224.09 235.28 218.73 234.6 218.26 234.18L217.58 230Z" fill="#E4897B"/>
<path d="M221.39 231.22C221.39 231.22 223.29 230.06 223.02 229.03C222.82 228.31 224.5 229.48 224.85 228.82C225.2 228.16 224.1 226.76 224.1 226.76C222.81 226.59 219.97 226.91 217.47 229.97L221.39 231.22Z" fill="#E4897B"/>
<path d="M217.6 230L212.09 231.87C212.09 231.87 212.77 236.42 213.09 236.3L220.01 233.51L217.6 230Z" fill="#E4897B"/>
<path d="M148.47 197.5C148.47 197.5 143.81 199.62 144.96 206.89C146.81 218.69 176.96 243.37 182.73 243.68C188.5 243.99 216.14 236.92 216.19 236.45C216.24 235.98 214.51 230.01 214.51 230.01C214.51 230.01 187.42 232.78 183.51 231.01C179.6 229.24 160 196.63 148.47 197.5Z" fill="#6CCBB9"/>
<path opacity="0.1" d="M148.47 197.5C148.47 197.5 143.81 199.62 144.96 206.89C146.81 218.69 176.96 243.37 182.73 243.68C188.5 243.99 216.14 236.92 216.19 236.45C216.24 235.98 214.51 230.01 214.51 230.01C214.51 230.01 187.42 232.78 183.51 231.01C179.6 229.24 160 196.63 148.47 197.5Z" fill="black"/>
</svg>
