<svg width="20" height="20" viewBox="0 0 20 20" fill="none" xmlns="http://www.w3.org/2000/svg">
<g id="Frame" clip-path="url(#clip0_530_593)">
<path id="Vector" fill-rule="evenodd" clip-rule="evenodd" d="M7.78258 6.44982C7.57862 6.44981 7.38301 6.36878 7.23879 6.22456L2.79436 1.78023C2.60198 1.58785 2.66474 1.26201 2.91482 1.15485L5.4643 0.0624283C5.75336 -0.0614277 6.0887 0.00316202 6.31106 0.225522L9.72781 3.64222C9.87804 3.7924 10.1215 3.7924 10.2717 3.64222L13.6888 0.22516C13.9112 0.00277081 14.2466 -0.0618039 14.5357 0.0621101L17.0852 1.15499C17.3352 1.26218 17.398 1.58799 17.2056 1.78034L12.761 6.22481C12.6168 6.36905 12.4211 6.45008 12.2172 6.45007L7.78258 6.44982ZM13.5498 7.78276C13.5498 7.57877 13.6309 7.38315 13.7751 7.23892L18.2197 2.79446C18.412 2.60209 18.7378 2.66484 18.845 2.91488L19.9377 5.46399C20.0615 5.75305 19.997 6.08842 19.7746 6.3108L16.3574 9.72792C16.2073 9.87807 16.2073 10.1215 16.3574 10.2717L19.7745 13.6888C19.9969 13.9111 20.0615 14.2465 19.9377 14.5355L18.8452 17.0849C18.738 17.335 18.4122 17.3978 18.2198 17.2054L13.775 12.7607C13.6308 12.6165 13.5498 12.4208 13.5498 12.2169V7.78276ZM12.7609 13.7748C12.6167 13.6306 12.421 13.5496 12.217 13.5496L7.78243 13.5499C7.57846 13.55 7.38286 13.631 7.23864 13.7752L2.7941 18.2196C2.60173 18.412 2.66449 18.7378 2.91457 18.845L5.46402 19.9374C5.75307 20.0612 6.0884 19.9966 6.31077 19.7743L9.72766 16.3575C9.87781 16.2073 10.1213 16.2073 10.2714 16.3575L13.6886 19.7745C13.911 19.9969 14.2463 20.0615 14.5354 19.9376L17.0852 18.8448C17.3353 18.7377 17.398 18.4119 17.2057 18.2195L12.7609 13.7748ZM6.44981 12.2173C6.44981 12.4213 6.36878 12.6169 6.22455 12.7611L1.78002 17.2055C1.58764 17.3979 1.2618 17.3351 1.15464 17.0851L0.0619547 14.5354C-0.0619164 14.2463 0.00267161 13.911 0.225043 13.6886L3.64189 10.2718C3.79207 10.1217 3.79207 9.87822 3.64189 9.72799L0.22513 6.31133C0.00275627 6.08896 -0.0618299 5.75361 0.0620471 5.46456L1.15479 2.91477C1.26196 2.66472 1.5878 2.60196 1.78017 2.79433L6.2246 7.23866C6.36884 7.3829 6.44987 7.57852 6.44986 7.78253L6.44981 12.2173Z" fill="#6C27FF"/>
</g>
<defs>
<clipPath id="clip0_530_593">
<rect width="20" height="20" fill="white"/>
</clipPath>
</defs>
</svg>
