<svg width="20" height="20" viewBox="0 0 20 20" fill="none" xmlns="http://www.w3.org/2000/svg">
<g id="solanaLogoMark 1" clip-path="url(#clip0_586_39)">
<path id="Vector" d="M19.9022 14.6149L16.7656 17.7821C16.6975 17.8509 16.615 17.9057 16.5233 17.9432C16.4316 17.9807 16.3327 18.0001 16.2328 18H1.36413C1.29318 18 1.22378 17.9805 1.16445 17.9439C1.10513 17.9072 1.05846 17.8551 1.03018 17.7938C1.0019 17.7325 0.993243 17.6648 1.00527 17.599C1.01731 17.5332 1.0495 17.4721 1.0979 17.4232L4.23679 14.256C4.3048 14.1874 4.38702 14.1326 4.47839 14.0952C4.56978 14.0577 4.66835 14.0383 4.76804 14.0381H19.6359C19.7068 14.0381 19.7762 14.0576 19.8356 14.0942C19.8948 14.1309 19.9415 14.183 19.9699 14.2443C19.9981 14.3056 20.0068 14.3733 19.9947 14.4391C19.9827 14.5049 19.9505 14.566 19.9022 14.6149ZM16.7656 8.23695C16.6975 8.16815 16.615 8.11329 16.5233 8.0758C16.4316 8.03833 16.3327 8.019 16.2328 8.01905H1.36413C1.29318 8.01905 1.22378 8.03856 1.16445 8.0752C1.10513 8.11184 1.05846 8.16398 1.03018 8.22524C1.0019 8.28651 0.993243 8.35422 1.00527 8.42005C1.01731 8.48587 1.0495 8.54696 1.0979 8.59582L4.23679 11.7631C4.3048 11.8317 4.38702 11.8864 4.47839 11.9239C4.56978 11.9614 4.66835 11.9808 4.76804 11.9809H19.6359C19.7068 11.9809 19.7762 11.9614 19.8356 11.9248C19.8948 11.8882 19.9415 11.836 19.9699 11.7748C19.9981 11.7135 20.0068 11.6458 19.9947 11.5799C19.9827 11.5141 19.9505 11.453 19.9022 11.4042L16.7656 8.23695ZM1.36413 5.96191H16.2328C16.3327 5.96195 16.4316 5.94264 16.5233 5.90515C16.615 5.86765 16.6975 5.8128 16.7656 5.744L19.9022 2.57676C19.9505 2.52792 19.9827 2.46683 19.9947 2.401C20.0068 2.33517 19.9981 2.26746 19.9699 2.2062C19.9415 2.14493 19.8948 2.09278 19.8356 2.05615C19.7762 2.01952 19.7068 2 19.6359 2H4.76804C4.66835 2.00016 4.56978 2.01958 4.47839 2.05706C4.38702 2.09455 4.3048 2.14929 4.23679 2.21791L1.09871 5.38515C1.05036 5.43393 1.01818 5.49496 1.00612 5.56071C0.994059 5.62647 1.00265 5.69413 1.03082 5.75536C1.059 5.8166 1.10555 5.86875 1.16476 5.90544C1.22396 5.94213 1.29325 5.96175 1.36413 5.96191Z" fill="#1C1D22"/>
</g>
<defs>
<clipPath id="clip0_586_39">
<rect width="20" height="20" fill="white"/>
</clipPath>
</defs>
</svg>
