<svg width="20" height="20" viewBox="0 0 20 20" fill="none" xmlns="http://www.w3.org/2000/svg">
<path fill-rule="evenodd" clip-rule="evenodd" d="M10 20C15.542 20 20 15.542 20 10C20 4.458 15.542 0 10 0C4.458 0 0 4.458 0 10C0 15.542 4.458 20 10 20ZM12.75 11.583C12.75 10.125 11.875 9.625 10.125 9.41601C8.875 9.24901 8.625 8.91601 8.625 8.33301C8.625 7.75001 9.042 7.37501 9.875 7.37501C10.625 7.37501 11.042 7.62501 11.25 8.25001C11.292 8.37501 11.417 8.45801 11.542 8.45801H12.209C12.376 8.45801 12.501 8.33301 12.501 8.16601V8.12401C12.334 7.20701 11.584 6.49901 10.626 6.41601V5.41601C10.626 5.24901 10.501 5.12401 10.293 5.08301H9.668C9.501 5.08301 9.376 5.20801 9.335 5.41601V6.37401C8.085 6.54101 7.293 7.37401 7.293 8.41601C7.293 9.79101 8.126 10.333 9.876 10.541C11.043 10.749 11.418 10.999 11.418 11.666C11.418 12.333 10.835 12.791 10.043 12.791C8.96 12.791 8.585 12.333 8.46 11.708C8.418 11.541 8.293 11.458 8.168 11.458H7.46C7.293 11.458 7.168 11.583 7.168 11.75V11.792C7.335 12.834 8.001 13.584 9.376 13.792V14.792C9.376 14.959 9.501 15.084 9.709 15.125H10.334C10.501 15.125 10.626 15 10.667 14.792V13.792C11.916 13.583 12.75 12.708 12.75 11.583ZM4.167 7.958C2.958 11.166 4.625 14.791 7.875 15.958C8 16.042 8.125 16.208 8.125 16.334V16.917C8.125 17.001 8.125 17.042 8.083 17.084C8.041 17.251 7.875 17.334 7.708 17.251C5.375 16.501 3.583 14.709 2.833 12.376C1.583 8.417 3.75 4.209 7.708 2.959C7.75 2.917 7.833 2.917 7.875 2.917C8.042 2.958 8.125 3.083 8.125 3.25V3.833C8.125 4.042 8.042 4.167 7.875 4.25C6.167 4.875 4.792 6.208 4.167 7.958ZM11.916 3.125C11.958 2.958 12.124 2.875 12.291 2.958C14.583 3.708 16.416 5.5 17.166 7.874C18.416 11.833 16.249 16.041 12.291 17.291C12.249 17.333 12.166 17.333 12.124 17.333C11.957 17.292 11.874 17.167 11.874 17V16.417C11.874 16.208 11.957 16.083 12.124 16C13.832 15.375 15.207 14.042 15.832 12.292C17.041 9.084 15.374 5.459 12.124 4.292C11.999 4.208 11.874 4.042 11.874 3.875V3.292C11.874 3.208 11.874 3.167 11.916 3.125Z" fill="#1C1D22"/>
</svg>
